<svg width="45" height="70" viewBox="0 0 45 70" fill="none" xmlns="http://www.w3.org/2000/svg">
<path d="M32.5075 45C32.4899 42.8905 31.9272 40.8214 30.8742 38.9935C29.8212 37.1656 28.3135 35.6409 26.4975 34.5675L45 2.5L40.675 0L21.7325 32.815C19.4077 32.2957 16.9899 32.3675 14.7 33.0239C12.4102 33.6803 10.3215 34.9004 8.62498 36.5725C-0.735018 45.6 -0.010017 66.705 0.024983 67.6C0.0508258 68.2456 0.325583 68.856 0.791653 69.3035C1.25772 69.7509 1.87891 70.0005 2.52498 70H40.0025C40.5272 70 41.0386 69.8349 41.4643 69.5281C41.8899 69.2213 42.2083 68.7883 42.3742 68.2906C42.5401 67.7928 42.5452 67.2554 42.3888 66.7546C42.2323 66.2537 41.9222 65.8148 41.5025 65.5C32.6525 58.86 32.5075 45.135 32.5075 45ZM19.825 37.4925C21.8259 37.5145 23.7413 38.3071 25.1727 39.7054C26.6041 41.1038 27.4413 43.0001 27.51 45C27.51 45.095 27.515 45.52 27.5525 46.1725L12.8025 39.6125C13.7741 38.8113 14.8953 38.2113 16.1009 37.8474C17.3064 37.4834 18.5724 37.3628 19.825 37.4925ZM28.625 65C26.6267 62.9653 25.353 60.3299 25 57.5H20C20.179 60.1607 21.0101 62.7364 22.42 65H16.8625C15.8344 61.7555 15.2088 58.397 15 55H9.99998C10.1612 58.3869 10.7192 61.7431 11.6625 65H4.99998C5.07748 60.41 5.72498 50.27 9.50748 43.6175L28.34 51.9925C29.2448 56.6908 31.1739 61.1319 33.99 65H28.625Z" fill="black"/>
</svg>
