<svg width="577" height="561" viewBox="0 0 577 561" fill="none" xmlns="http://www.w3.org/2000/svg">
<path d="M351.596 479.728C364.491 448.563 349.708 412.834 318.577 399.925C287.447 387.015 251.757 401.815 238.862 432.98C225.967 464.145 240.75 499.874 271.881 512.783C303.011 525.692 338.701 510.893 351.596 479.728Z" fill="#B0C9E2"/>
<path d="M295.206 517.429C313.976 517.429 329.193 490.084 329.193 456.352C329.193 422.62 313.976 395.275 295.206 395.275C276.435 395.275 261.218 422.62 261.218 456.352C261.218 490.084 276.435 517.429 295.206 517.429Z" stroke="white" stroke-miterlimit="10"/>
<path d="M295.206 490.377C328.9 490.377 356.215 475.143 356.215 456.352C356.215 437.56 328.9 422.327 295.206 422.327C261.511 422.327 234.196 437.56 234.196 456.352C234.196 475.143 261.511 490.377 295.206 490.377Z" stroke="white" stroke-miterlimit="10"/>
<path d="M295.206 395.275V517.415" stroke="white" stroke-miterlimit="10"/>
<path d="M234.223 457.685L356.202 455.005" stroke="white" stroke-miterlimit="10"/>
<path d="M145.406 23.8744H265.592C283.391 23.8744 299.919 37.638 303.807 54.4852L370.529 343.117C374.426 359.964 353.195 374.668 335.396 374.668H215.21C197.411 374.668 180.371 361.017 176.996 344.057L119.366 54.4852C115.991 37.5252 127.607 23.8744 145.406 23.8744Z" fill="#6C8BB7"/>
<path d="M148.269 23.8744H282.62C296.333 23.8744 309.626 34.7894 312.303 48.2427L369.886 337.579C372.565 351.042 363.615 361.947 349.911 361.947H215.561C201.848 361.947 188.564 351.033 185.877 337.579L128.295 48.2427C125.617 34.7894 134.556 23.8744 148.269 23.8744Z" fill="#87A1CF"/>
<path d="M148.372 33.2664C140.576 33.2664 135.552 39.5465 137.105 47.3496L189.282 309.526C190.835 317.329 198.359 323.609 206.154 323.609H344.026C351.822 323.609 356.846 317.329 355.294 309.526L303.117 47.3496C301.564 39.5465 294.04 33.2664 286.244 33.2664H249.782L246.624 41.0883H191.115L184.843 33.2664H148.372Z" fill="#D2DFEE"/>
<path d="M333.013 361.957H252.146" stroke="#556884" stroke-width="0.712042" stroke-miterlimit="10" stroke-linecap="round"/>
<path d="M327.467 323.157H246.609" stroke="#556884" stroke-width="0.712042" stroke-miterlimit="10" stroke-linecap="round"/>
<path d="M284.659 37.0645L285.761 42.6019H273.881L272.779 37.0645H284.659ZM274.644 41.6242H284.589L283.873 38.0234H273.927L274.644 41.6242ZM286.944 38.1645L287.604 41.4832H286.083L285.422 38.1645H286.944ZM275.837 38.6063L276.325 41.0601H275.114L274.626 38.6063H275.837ZM277.603 38.6063L278.091 41.0601H276.88L276.391 38.6063H277.603ZM279.368 38.6063L279.857 41.0601H278.645L278.157 38.6063H279.368ZM281.125 38.6063L281.613 41.0601H280.401L279.913 38.6063H281.125Z" fill="white"/>
<path d="M153.785 38.7192C155.8 36.1996 159.904 36.1996 162.923 38.7192C163.114 38.879 163.165 39.1328 163.037 39.2927C162.909 39.4525 162.656 39.4525 162.464 39.2927C159.808 37.0834 156.239 37.0834 154.462 39.2927C154.334 39.4525 154.081 39.4525 153.889 39.2927C153.707 39.1328 153.657 38.879 153.785 38.7192ZM155.193 39.8944C156.689 38.0235 159.741 38.0235 161.983 39.8944C162.174 40.0542 162.225 40.308 162.097 40.4678C161.969 40.6277 161.715 40.6277 161.524 40.4678C159.654 38.9072 157.128 38.9072 155.88 40.4678C155.752 40.6277 155.498 40.6277 155.307 40.4678C155.115 40.308 155.065 40.0542 155.193 39.8944ZM156.6 41.0695C157.578 39.8474 159.578 39.8474 161.043 41.0695C161.234 41.2294 161.285 41.4832 161.157 41.643C161.029 41.8028 160.775 41.8028 160.584 41.643C159.491 40.7311 158.017 40.7311 157.287 41.643C157.16 41.8028 156.906 41.8028 156.714 41.643C156.523 41.4832 156.473 41.2294 156.6 41.0695ZM157.884 42.1413C158.388 41.5114 159.431 41.5114 160.185 42.1413C160.377 42.3011 160.427 42.555 160.299 42.7148C160.172 42.8746 159.918 42.8746 159.726 42.7148C159.344 42.3951 158.827 42.3951 158.571 42.7148C158.443 42.8746 158.19 42.8746 157.998 42.7148C157.807 42.555 157.756 42.3011 157.884 42.1413Z" fill="white"/>
<path d="M266.949 37.356L268 42.6395H266.62L265.568 37.356H266.949ZM264.882 38.5311L265.699 42.6395H264.319L263.501 38.5311H264.882ZM262.833 39.8003L263.398 42.6395H262.018L261.453 39.8003H262.833ZM260.832 40.9755L261.163 42.6395H259.783L259.452 40.9755H260.832Z" fill="white"/>
<path d="M177.478 37.7696L175.026 38.3807L174.694 37.6098L177.146 36.9987L177.478 37.7696ZM174.874 42.6207L172.982 41.6054L172.993 41.6618H171.077L170.347 37.9953H172.263L172.275 38.0517L173.763 37.0363L174.874 42.6207ZM177.76 39.4713L177.917 40.261H175.269L175.112 39.4713H177.76ZM178.31 41.9533L178.285 42.7241L175.59 42.1131L175.615 41.3421L178.31 41.9533Z" fill="white"/>
<path d="M195.877 61.0258L200.624 56.2687L366.234 263.193L361.487 267.95H237.026L195.877 61.0258Z" fill="#87A1CF"/>
<path d="M200.631 56.2687H325.093L366.243 263.193H241.781L200.631 56.2687Z" fill="#EEF3FB"/>
<path d="M75.5966 177.152H200.029L214.404 246.289H89.9716L75.5966 177.152Z" fill="#CADAF1"/>
<path d="M69.2293 138.991H193.65L197.222 163.341H72.802L69.2293 138.991Z" fill="#CADAF1"/>
<path d="M310.715 96.469L306.238 73.9527H286.304M304.211 164.008H324.144L319.667 141.492M239.923 141.492L244.401 164.008H264.334M246.429 73.9621H226.495L230.973 96.4784" stroke="#556884" stroke-width="0.712042" stroke-miterlimit="10" stroke-linecap="round"/>
<path d="M244.519 173.165H326.761L329.557 187.23H247.315L244.519 173.165Z" fill="#CADAF1"/>
<path d="M247.974 190.52H330.216L333.012 204.585H250.77L247.974 190.52Z" fill="#CADAF1"/>
<path d="M276.655 218.16H316.365C320.948 218.16 324.899 221.404 325.792 225.898C326.975 231.849 322.426 237.405 316.359 237.405H276.649C272.066 237.405 268.115 234.161 267.222 229.668C266.048 223.716 270.598 218.16 276.655 218.16Z" fill="#EF0C0C"/>
<path d="M288.577 97.3809C288.577 97.3809 284.25 84.689 272.14 83.5985C260.03 82.5079 251.602 85.4788 250.459 92.5298C249.315 99.5808 252.763 108.982 255.208 115.046C257.654 121.11 265.518 126.356 267.188 129.938C268.87 133.529 270.838 134.732 268.583 136.199C266.327 137.656 256.608 138.004 255.601 143.006C254.595 148.007 254.447 155.575 254.447 155.575H310.013C310.013 155.575 307.735 144.736 303.833 141.031C299.929 137.318 290.062 138.061 287.865 135.56C285.667 133.059 284.691 131.649 285.797 128.659C286.899 125.651 294.533 118.402 288.577 97.3809Z" fill="#CADAF1"/>
<path d="M127.826 138.313H193.643L197.225 163.339H72.8092" stroke="#556884" stroke-miterlimit="10" stroke-linecap="round"/>
<path d="M89.9894 246.295H214.406L200.009 177.152" stroke="#556884" stroke-miterlimit="10" stroke-linecap="round"/>
<path d="M498.065 136.046C498.065 136.046 527.83 188.085 533.16 200.835C538.479 213.585 538.188 212.914 538.339 217.861C538.49 222.807 513.244 291.926 510.336 295.163C507.428 298.399 503.449 297.955 503.449 297.955L499.946 306.084L481.209 302.988L482.647 296.331L489.469 138.275L498.065 136.046Z" fill="#F70000"/>
<path d="M356.255 169.858C356.255 169.858 356.666 161.957 356.018 158.743C355.369 155.528 349.995 143.752 349.963 141.263C349.931 138.773 346.979 139.347 346.428 141.869C345.876 144.391 347.822 153.472 347.822 153.472L356.255 169.858Z" fill="#FFC5B3"/>
<path d="M529.073 499.067L534.566 512.326C533.247 510.876 497.838 531.668 509.158 555.826L576.992 516.623C576.992 516.623 571.077 505.378 561.433 498.743C553.865 484.239 553.043 481.263 553.043 481.263L529.073 499.067Z" fill="#E5B469"/>
<path d="M553.043 481.252L529.073 499.067L534.566 512.326C534.566 512.326 545.713 523.485 561.433 498.732C553.865 484.239 553.043 481.252 553.043 481.252Z" fill="#CADAF1"/>
<path d="M507.784 548.336L573.121 510.573" stroke="#D87C48" stroke-width="0.811817" stroke-miterlimit="2.4355" stroke-linecap="round" stroke-linejoin="bevel"/>
<path d="M529.051 513.809C529.051 513.809 537.247 520.271 536.23 523.226C535.214 526.18 526.965 532.35 525.3 531.451C523.635 530.564 517.915 522.966 517.915 522.966" stroke="#D87C48" stroke-width="0.811817" stroke-miterlimit="2.4355" stroke-linecap="round" stroke-linejoin="round"/>
<path d="M525.473 517.251C525.473 517.251 531.354 521.451 531.084 523.128C530.824 524.806 528.986 525.964 527.516 525.304C526.046 524.643 522.132 520.033 522.132 520.033" stroke="#D87C48" stroke-width="0.811817" stroke-miterlimit="2.4355" stroke-linecap="round" stroke-linejoin="round"/>
<path d="M496.789 314.071L516.456 421.3L558.525 487.605L518.002 512.088C518.002 512.088 466.288 444.214 463.758 437.135C461.218 430.056 449.281 384.706 449.281 384.706L474.7 308.952L496.789 314.071Z" fill="#254282"/>
<path d="M418.543 521.818L416.683 536.051C416.262 534.136 375.219 534.417 372.96 561H451.281C451.281 561 451.779 548.304 446.74 537.729C447.422 521.385 448.2 518.398 448.2 518.398L418.543 521.818Z" fill="#E5B469"/>
<path d="M448.2 518.387L418.543 521.818L416.683 536.051C416.683 536.051 420.77 551.302 446.741 537.729C447.422 521.375 448.2 518.387 448.2 518.387Z" fill="#CADAF1"/>
<path d="M375.501 553.824H450.946" stroke="#D87C48" stroke-width="0.811817" stroke-miterlimit="2.4355" stroke-linecap="round" stroke-linejoin="bevel"/>
<path d="M503.806 263.872C503.806 263.872 506.173 297.771 504.476 306.105C502.768 314.439 490.085 328.055 481.674 333.088C473.273 338.132 473.857 337.667 471.316 346.997C468.775 356.326 456.19 436.843 456.19 436.843C457.596 467.863 455.087 498.894 453.779 529.882L410.012 527.88C410.012 527.88 404.023 436.843 404.898 429.212C405.774 421.592 415.635 265.744 415.635 265.744L503.806 263.872Z" fill="#314E9E"/>
<path d="M439.519 69.124C439.519 69.124 437.213 57.589 445.292 51.3672C453.371 45.1453 479.968 46.8116 490.277 56.0375C497.639 57.6046 494.142 77.4462 490.796 84.589C487.44 91.724 469.177 101.768 469.177 101.768L439.519 69.124Z" fill="#622600"/>
<path d="M441.733 59.1065C441.733 59.1065 433.386 81.3502 434.422 96.6335C435.014 105.406 440.276 109.822 445.815 111.453C450.775 112.913 452.47 111.519 451.363 118.635C451.234 119.467 450.042 126.705 449.835 127.785C461.303 134.735 471.043 132.207 477.769 128.81C477.769 128.81 477.1 112.342 476.863 99.4009C482.984 103.53 488.749 97.9497 490.55 88.7912C492.352 79.6327 482.655 75.0357 478.181 83.8469C476.188 87.5244 475.343 91.6565 475.343 91.6565C475.343 91.6565 469.568 95.1865 470.165 92.2411C470.624 90.0007 477.528 81.4311 477.365 79.7575C477.109 77.1525 475.156 78.5344 472.03 77.5867C466.246 75.8408 470.32 62.822 470.32 62.822C470.32 62.822 453.516 63.9718 441.733 59.1065Z" fill="#FFC5B3"/>
<path d="M487.187 85.4854C487.187 85.4854 485.458 82.5322 482.613 84.5894C479.768 86.6466 477.886 94.1299 480.017 96.3709" stroke="#E2866D" stroke-width="0.681455" stroke-miterlimit="2.0444" stroke-linecap="round" stroke-linejoin="round"/>
<path d="M446.375 76.8289C446.375 76.8289 439.565 84.8551 440.795 87.9102C442.026 90.9652 446.074 89.7129 446.074 89.7129" stroke="#E2866D" stroke-width="0.681455" stroke-miterlimit="2.0444" stroke-linecap="round" stroke-linejoin="round"/>
<path d="M454.393 66.5112C455.575 65.6057 457.282 65.2179 460.089 66.9492C462.895 68.6806 463.195 70.9866 461.496 71.2267C459.806 71.4567 453.109 69.3722 454.393 66.5112Z" fill="#622600"/>
<path d="M447.526 65.0788C446.865 64.0109 445.71 63.2915 443.299 64.2476C440.897 65.2025 440.179 67.2108 441.352 67.7903C442.535 68.3687 447.842 67.9322 447.526 65.0788Z" fill="#622600"/>
<path d="M455.221 75.2533C456.124 75.3735 456.725 76.4678 456.564 77.6981C456.404 78.9283 455.543 79.8378 454.639 79.7176C453.735 79.5974 453.135 78.5031 453.296 77.2729C453.456 76.0426 454.318 75.1421 455.221 75.2533Z" fill="#622600"/>
<path d="M442.612 73.3069C443.515 73.4271 444.115 74.5214 443.955 75.7516C443.794 76.9819 442.933 77.8914 442.03 77.7712C441.126 77.651 440.526 76.5567 440.686 75.3264C440.838 74.0974 441.708 73.1867 442.612 73.3069Z" fill="#622600"/>
<path d="M480.742 87.8018C480.742 87.8018 483.865 87.6689 484.477 91.1802" stroke="#E2866D" stroke-width="0.681455" stroke-miterlimit="2.0444" stroke-linecap="round" stroke-linejoin="round"/>
<path d="M467.226 109.392C467.226 109.392 462.42 112.621 455.108 112.843C453.312 112.894 451.475 112.704 449.713 112.393C451.198 112.831 451.814 113.557 451.645 116.198C453.654 116.092 456.035 115.891 458.19 115.5C463.011 114.632 467.226 109.392 467.226 109.392Z" fill="#FFA88D"/>
<path d="M493.725 75.3906C493.725 75.3906 470.471 61.9192 439.755 61.029C444.68 39.4258 452.013 34.5839 458.866 34.0647C465.719 33.5545 486.551 37.8332 492.844 47.1527C499.136 56.4721 493.725 75.3906 493.725 75.3906Z" fill="#314E9E"/>
<path d="M470.234 64.9427C470.234 64.9427 458.359 50.2063 440.794 48.2403C423.229 46.2653 422.271 49.8804 423.992 53.1183C425.713 56.3561 440.258 60.5119 440.258 60.5119C440.258 60.5119 450.092 60.327 469.711 66.1285C470.234 64.9427 470.234 64.9427 470.234 64.9427Z" fill="#5C79CC"/>
<path d="M469.711 66.1285C469.711 66.1285 457.836 51.3923 440.271 49.4263C422.706 47.4513 421.748 51.0664 423.469 54.3042C425.19 57.5421 439.735 61.6978 439.735 61.6978C439.735 61.6978 449.022 59.7706 469.711 66.1285Z" fill="#243974"/>
<path d="M454.321 36.1493C454.321 36.1493 466.063 38.3081 470.212 40.2949C474.362 42.2907 475.043 45.0603 474.684 49.0558C474.324 53.0423 469.872 65.9 469.872 65.9" stroke="#103262" stroke-width="0.62285" stroke-miterlimit="2.2259" stroke-linecap="round" stroke-linejoin="bevel"/>
<path d="M451.519 96.2149C451.519 96.2149 446.643 96.3881 444.243 95.6738" stroke="#E2866D" stroke-width="0.732584" stroke-miterlimit="2.4355" stroke-linecap="round" stroke-linejoin="round"/>
<path d="M450.568 112.494C450.568 112.494 465.575 115.567 470.418 104.744" stroke="#E2866D" stroke-width="0.811817" stroke-miterlimit="2.4355" stroke-linecap="round" stroke-linejoin="round"/>
<path opacity="0.25" d="M503.806 263.872C503.806 263.872 504.444 273.396 504.811 283.614C485.242 285.681 440.859 288.939 414.759 279.209C414.888 277.131 415.624 265.755 415.624 265.755L503.806 263.872Z" fill="#103262"/>
<path d="M485.598 117.115C485.598 117.115 454.795 120.416 447.411 125.449C440.026 130.482 442.47 132.636 442.47 132.636C442.47 132.636 437.172 136.197 433.377 139.65C429.582 143.092 409.699 240.958 409.137 247.431C408.574 253.914 412.607 258.59 412.607 258.59L411.634 268.45C411.634 268.45 485.912 282.055 506.941 269.976C507.763 263.082 505.795 261.436 508.325 259.023C510.855 256.609 514.618 255.635 514.412 253.275C514.207 250.916 501.816 142.962 501.816 142.962C501.816 142.962 515.288 156.48 520.413 144.639C525.527 132.799 507.709 126.413 507.709 126.413C507.709 126.413 516.088 128.036 514.974 121.704C513.872 115.373 492.388 116.964 485.598 117.115Z" fill="#EF1111"/>
<path d="M366.019 181.147C366.019 181.147 360.364 178.874 359.196 176.169C358.029 173.463 353.52 158.613 351.974 155.993C350.439 153.374 338.513 139.271 336.167 136.998C333.821 134.725 330.761 135.44 327.453 138.329C324.144 141.219 322.728 143.871 322.998 149.261C323.268 154.651 337.81 173.69 339.951 177.998C342.092 182.305 348.482 186.473 351.455 187.512C354.428 188.551 361.186 193.616 361.186 193.616L366.019 181.147Z" fill="#FFC5B3"/>
<path d="M503.384 260.744C503.384 260.744 475.176 267.66 416.975 258.081" stroke="#964727" stroke-width="0.811817" stroke-miterlimit="2.2259" stroke-linecap="round" stroke-linejoin="bevel"/>
<path d="M500.324 140.884C500.324 140.884 490.518 132.063 481.76 130.168C473.013 128.274 455.401 128.794 444.902 132.019" stroke="#964727" stroke-width="0.811817" stroke-miterlimit="2.2259" stroke-linecap="round" stroke-linejoin="bevel"/>
<path d="M504.909 125.774C504.909 125.774 478.041 120.449 453.444 127.095" stroke="#964727" stroke-width="0.811817" stroke-miterlimit="2.2259" stroke-linecap="round" stroke-linejoin="bevel"/>
<path d="M445.41 139.466C445.41 139.466 459.855 131.576 471.478 145.44C483.101 159.316 452.265 226.747 438.556 234.995C424.846 243.242 362.656 205.49 362.894 202.87C363.132 200.251 363.218 198.866 363.218 198.866L356.601 193.562L363.986 178.539L370.841 181.017L376.517 176.861C376.517 176.861 386.637 178.366 396.757 181.483C406.877 184.6 418.056 187.696 418.056 187.696C418.056 187.696 428.23 151.599 445.41 139.466Z" fill="#FF0000"/>
<path d="M370.722 182.63L364.602 196.495" stroke="#964727" stroke-width="0.811817" stroke-miterlimit="2.2259" stroke-linecap="round" stroke-linejoin="bevel"/>
<path d="M419.451 189.243C419.451 189.243 434.545 200.402 434.923 212.622" stroke="#964727" stroke-width="0.811817" stroke-miterlimit="2.2259" stroke-linecap="round" stroke-linejoin="bevel"/>
<path d="M411.158 534.569C411.158 534.569 415.029 544.266 412.672 546.323C410.315 548.379 400.087 549.581 399.092 547.979C398.098 546.377 396.941 536.939 396.941 536.939" stroke="#D87C48" stroke-width="0.811817" stroke-miterlimit="2.4355" stroke-linecap="round" stroke-linejoin="round"/>
<path d="M406.358 535.759C406.358 535.759 409.353 542.34 408.282 543.66C407.212 544.981 405.05 545.067 404.098 543.758C403.147 542.448 402.066 536.495 402.066 536.495" stroke="#D87C48" stroke-width="0.811817" stroke-miterlimit="2.4355" stroke-linecap="round" stroke-linejoin="round"/>
<path d="M453.898 521.602L410.337 518.42" stroke="#103262" stroke-width="0.742001" stroke-miterlimit="2.2259" stroke-linecap="round" stroke-linejoin="bevel"/>
<path d="M430.674 519.827C430.674 519.827 429.258 432.243 429.506 425.37C429.755 418.497 440.07 275.312 440.07 275.312" stroke="#103262" stroke-width="0.742001" stroke-miterlimit="2.2259" stroke-linecap="round" stroke-linejoin="bevel"/>
<path d="M427.019 273.483C427.019 273.483 422.608 298.637 437.291 303.183" stroke="#103262" stroke-width="0.742001" stroke-miterlimit="2.2259" stroke-linecap="round" stroke-linejoin="bevel"/>
<path d="M493.048 319.819L475.446 343.436L458.72 418.778" stroke="#103262" stroke-width="0.742001" stroke-miterlimit="2.2259" stroke-linecap="round" stroke-linejoin="bevel"/>
<path d="M428.263 161.881C432.706 153.136 438.491 144.358 445.41 139.466C445.41 139.466 459.855 131.576 471.478 145.44C483.101 159.316 452.265 226.747 438.556 234.995C433.993 237.733 424.078 235.395 412.877 230.946" stroke="#964727" stroke-width="0.811817" stroke-miterlimit="2.2259" stroke-linecap="round" stroke-linejoin="bevel"/>
<path d="M345.703 153.742C345.703 153.742 332.361 137.074 330.502 136.673" stroke="#E2866D" stroke-width="0.732584" stroke-miterlimit="2.4355" stroke-linecap="round" stroke-linejoin="round"/>
<path d="M340.989 156.816C340.989 156.816 328.75 139.942 327.269 139.487" stroke="#E2866D" stroke-width="0.732584" stroke-miterlimit="2.4355" stroke-linecap="round" stroke-linejoin="round"/>
<path d="M324.101 143.839L336.61 161.394" stroke="#E2866D" stroke-width="0.732584" stroke-miterlimit="2.4355" stroke-linecap="round" stroke-linejoin="round"/>
<path d="M506.952 269.987C507.774 263.092 505.806 261.447 508.336 259.034C510.866 256.62 514.628 255.646 514.423 253.286C514.218 250.927 501.827 142.973 501.827 142.973" stroke="#964727" stroke-width="0.811817" stroke-miterlimit="2.2259" stroke-linecap="round" stroke-linejoin="bevel"/>
<path d="M529.149 212.557C529.149 212.557 513.969 211.648 510.671 216.118" stroke="#964727" stroke-width="0.811817" stroke-miterlimit="2.2259" stroke-linecap="round" stroke-linejoin="bevel"/>
<path d="M552.059 482.377C548.437 483.081 514.801 505.334 514.801 505.334" stroke="#103262" stroke-width="0.742001" stroke-miterlimit="2.2259" stroke-linecap="round" stroke-linejoin="bevel"/>
<path d="M531.484 493.991C531.484 493.991 486.788 435.912 486.582 429.872C486.377 423.833 472.354 362.149 472.354 362.149" stroke="#103262" stroke-width="0.742001" stroke-miterlimit="2.2259" stroke-linecap="round" stroke-linejoin="bevel"/>
<path d="M114.042 70.73C118.823 70.5567 122.072 73.4899 121.287 77.2763L114.614 109.355C113.829 113.155 109.3 116.368 104.519 116.528L47.9713 118.528C43.1768 118.701 39.9139 115.768 40.6997 111.968L47.372 79.8896C48.1577 76.1031 52.6991 72.9032 57.4936 72.7299L61.2759 72.5966C63.793 62.1571 76.3918 53.3575 89.6831 52.8775C102.974 52.4109 112.071 60.4372 110.259 70.85L114.042 70.73ZM66.39 72.4232L105.145 71.05C106.504 62.837 99.3253 56.5573 88.8574 56.9307C78.3628 57.304 68.441 64.197 66.39 72.4232ZM86.3936 105.915L83.8765 95.9555C87.0594 94.8755 89.6298 92.4756 90.2025 89.7558C90.9483 86.1693 87.8585 83.3827 83.3171 83.5427C78.749 83.7027 74.4473 86.7559 73.7015 90.3424C73.1289 93.1023 74.7936 95.3688 77.6437 96.2221L70.9314 106.462L86.3936 105.915Z" fill="#B0C9E2"/>
<path d="M23.1599 219.896C23.7592 219.87 24.3186 219.936 24.8247 220.083C26.5427 220.563 27.5549 221.923 27.2219 223.563L23.6127 240.949C23.1733 243.068 20.6428 244.855 17.9659 244.962C15.289 245.055 13.4645 243.415 13.904 241.295L17.5131 223.909C17.8594 222.269 19.4442 220.816 21.402 220.203C21.9613 220.03 22.5606 219.923 23.1599 219.896Z" fill="#D2DFEE"/>
<path d="M26.7558 210.817L24.8247 220.083C24.3186 219.936 23.7592 219.87 23.1599 219.896C22.5606 219.923 21.9613 220.03 21.3886 220.203L23.3197 210.937C23.8791 210.937 24.4518 210.937 25.0244 210.91C25.5971 210.897 26.1831 210.87 26.7558 210.817Z" fill="#B0C9E2"/>
<path d="M34.7066 164.352C50.9811 163.779 62.0084 173.725 59.3315 186.591C56.7478 198.991 42.3644 209.563 26.7424 210.817C26.1698 210.857 25.5971 210.897 25.0244 210.923C24.4518 210.95 23.8791 210.95 23.3197 210.95C7.99078 210.79 -2.18413 201.084 0.399552 188.684C3.07646 175.818 18.432 164.939 34.7066 164.352ZM26.7957 205.484C39.0482 204.777 50.4617 196.524 52.486 186.831C54.497 177.138 46.3731 169.592 34.2271 169.752C34.2937 169.459 34.054 169.245 33.6944 169.259C20.8426 169.712 8.72327 178.312 6.61903 188.458C4.5148 198.604 13.2114 206.457 26.0499 206.004C26.4095 206.004 26.7424 205.764 26.7957 205.484Z" fill="#D2DFEE"/>
<path d="M33.6811 169.259C34.0407 169.245 34.2804 169.459 34.2138 169.739C34.1472 170.019 33.8143 170.245 33.468 170.259C27.395 170.472 21.5085 172.618 16.8739 175.898C12.2392 179.178 8.8831 183.605 7.88425 188.404C6.88541 193.204 8.44361 197.444 11.7731 200.457C15.1026 203.457 20.1767 205.204 26.2497 204.99C26.6093 204.977 26.8357 205.19 26.7957 205.47C26.7425 205.75 26.4095 205.99 26.0499 206.004C13.1981 206.457 4.50149 198.604 6.61905 188.458C8.72328 178.312 20.8426 169.712 33.6811 169.259Z" fill="#556884"/>
<path d="M34.2271 169.752C46.3598 169.592 54.497 177.138 52.486 186.831C50.475 196.524 39.0482 204.777 26.809 205.484C26.8623 205.204 26.6226 204.99 26.263 205.004C20.19 205.217 15.1026 203.47 11.7864 200.47C8.45691 197.471 6.8987 193.218 7.89755 188.418C8.8964 183.618 12.2525 179.192 16.8872 175.912C21.5218 172.632 27.4083 170.485 33.4813 170.272C33.8276 170.259 34.1605 170.019 34.2271 169.752Z" fill="#B0C9E2"/>
<path d="M336.052 -8.00402e-06C337.863 -0.0666715 339.075 1.03994 338.782 2.46654L337.57 8.2796C337.477 8.74624 337.237 9.17289 336.891 9.55954C336.172 10.3728 334.986 10.9328 333.774 10.9861L325.983 11.2661C324.758 11.3061 323.799 10.8128 323.413 10.0395C323.227 9.67953 323.16 9.25289 323.253 8.78624L324.465 2.97318C324.758 1.54658 326.463 0.346642 328.274 0.279979L336.052 -8.00402e-06Z" fill="#B0C9E2"/>
<path d="M357.214 6.63967C358.053 6.613 358.839 6.82632 359.371 7.31963L363.966 11.4661C365.032 12.4261 364.699 14.066 363.207 15.1193L357.147 19.4257C356.668 19.759 356.135 19.999 355.576 20.1324C355.27 20.2124 354.963 20.2524 354.67 20.2657C353.831 20.2924 353.045 20.079 352.513 19.5857L347.905 15.4259C347.186 14.7726 347.106 13.8127 347.598 12.9327C347.825 12.5194 348.184 12.1194 348.664 11.7728L354.724 7.47963C355.496 6.94632 356.375 6.66633 357.214 6.63967Z" fill="#B0C9E2"/>
<path d="M367.495 28.3986C369.307 28.3319 370.519 29.4386 370.226 30.8652L368.947 37.0115C368.654 38.4381 366.949 39.6381 365.138 39.7047L357.773 39.9714C357.187 39.9981 356.668 39.8914 356.242 39.6914C355.336 39.2914 354.83 38.4648 355.03 37.5048L356.308 31.3585C356.508 30.3985 357.36 29.5319 358.452 29.0519C358.972 28.8253 359.545 28.6786 360.131 28.6653L367.495 28.3986Z" fill="#B0C9E2"/>
<path d="M348.73 48.9043C349.023 48.891 349.316 48.9177 349.596 48.971C350.102 49.0643 350.542 49.2643 350.888 49.5843L355.23 53.5041C356.295 54.4641 355.962 56.104 354.47 57.1573L348.065 61.7037C347.319 62.237 346.426 62.517 345.601 62.5437C344.762 62.5704 343.976 62.357 343.443 61.8637L339.088 57.9306C338.742 57.6239 338.556 57.2373 338.489 56.8373C338.356 55.984 338.835 54.9974 339.847 54.2774L346.253 49.7443C346.999 49.2243 347.891 48.9443 348.73 48.9043Z" fill="#B0C9E2"/>
<path d="M323.613 59.8105C324.838 59.7705 325.797 60.2638 326.183 61.0238C326.37 61.3838 326.436 61.8104 326.343 62.2637L325.131 68.0768C324.838 69.5034 323.133 70.7033 321.322 70.77L313.531 71.05C311.72 71.1166 310.508 70.01 310.801 68.5834L312.013 62.7704C312.106 62.317 312.346 61.8771 312.692 61.5037C313.411 60.6905 314.597 60.1171 315.822 60.0771L323.613 59.8105Z" fill="#B0C9E2"/>
<path d="M294.913 50.8242C295.752 50.7976 296.537 51.0109 297.07 51.5042L301.665 55.6507C302.384 56.304 302.464 57.2639 301.971 58.1572C301.745 58.5705 301.385 58.9705 300.906 59.3038L294.846 63.6103C294.1 64.1436 293.208 64.4236 292.382 64.4503C291.543 64.4769 290.757 64.2636 290.225 63.7703L285.617 59.6105C284.551 58.6505 284.884 57.0106 286.376 55.9573L292.435 51.6642C292.915 51.3309 293.448 51.0909 293.994 50.9576C294.3 50.8776 294.606 50.8242 294.913 50.8242Z" fill="#B0C9E2"/>
<path d="M291.81 31.0918C292.396 31.0652 292.902 31.1718 293.341 31.3585C294.247 31.7585 294.753 32.5851 294.54 33.5584L293.261 39.7047C293.061 40.678 292.209 41.5447 291.117 42.0113C290.598 42.238 290.038 42.3713 289.452 42.398L282.087 42.6646C280.276 42.7313 279.064 41.6247 279.357 40.1981L280.636 34.0517C280.929 32.6251 282.633 31.4251 284.445 31.3585L291.81 31.0918Z" fill="#B0C9E2"/>
<path d="M303.995 8.51961C304.834 8.49294 305.62 8.70627 306.153 9.19958L310.495 13.1194C310.841 13.426 311.041 13.8127 311.094 14.2127C311.227 15.066 310.748 16.0526 309.735 16.7726L303.33 21.319C302.584 21.8523 301.691 22.1323 300.866 22.159C300.559 22.1723 300.266 22.1456 299.987 22.0923C299.494 21.999 299.041 21.799 298.708 21.479L294.353 17.5458C293.288 16.5859 293.621 14.946 295.112 13.8927L301.518 9.35957C302.264 8.8396 303.156 8.55961 303.995 8.51961Z" fill="#B0C9E2"/>
<path d="M355.043 37.5049C354.843 38.4782 355.349 39.2915 356.255 39.6914C354.71 43.0246 352.419 46.1578 349.583 48.9577C349.303 48.9043 349.023 48.8777 348.717 48.891C347.878 48.9177 346.986 49.1977 346.253 49.731L339.847 54.2641C338.835 54.984 338.356 55.9707 338.489 56.824C334.667 58.7439 330.511 60.1705 326.196 60.9971C325.797 60.2238 324.851 59.7305 323.626 59.7838L315.835 60.0638C314.61 60.1038 313.425 60.6771 312.705 61.4904C308.67 60.9571 305.048 59.7971 301.971 58.1306C302.464 57.2506 302.384 56.2906 301.665 55.624L297.07 51.4775C296.537 50.9976 295.752 50.7709 294.913 50.7976C294.606 50.8109 294.3 50.8509 294.007 50.9309C292.302 48.291 291.303 45.2645 291.13 41.998C292.222 41.518 293.075 40.6514 293.275 39.6914L294.553 33.5451C294.753 32.5718 294.26 31.7585 293.354 31.3452C294.899 28.012 297.177 24.8788 300.013 22.0789C300.293 22.1323 300.586 22.1589 300.892 22.1456C301.731 22.1189 302.624 21.839 303.356 21.3056L309.762 16.7592C310.774 16.0392 311.254 15.0659 311.121 14.1993C314.943 12.2794 319.098 10.8528 323.426 10.0262C323.826 10.7995 324.771 11.2928 325.997 11.2528L333.788 10.9728C335.013 10.9328 336.185 10.3595 336.904 9.5462C340.939 10.0795 344.562 11.2395 347.638 12.906C347.146 13.786 347.226 14.746 347.945 15.3993L352.553 19.5591C353.085 20.039 353.871 20.2657 354.71 20.239C355.003 20.2257 355.309 20.1857 355.616 20.1057C357.32 22.7456 358.319 25.7588 358.492 29.0253C357.4 29.5053 356.548 30.3719 356.348 31.3318L355.043 37.5049ZM321.762 50.0909C331.936 49.731 341.552 42.9179 343.23 34.8783C344.908 26.8387 337.996 20.599 327.821 20.959C317.66 21.319 308.044 28.132 306.366 36.1849C304.688 44.2246 311.6 50.4509 321.762 50.0909Z" fill="#B0C9E2"/>
<path d="M384.289 89.0091C385.435 88.9691 386.207 89.6624 386.021 90.569L385.208 94.4622C385.022 95.3688 383.943 96.1288 382.798 96.1688L378.123 96.3288C377.75 96.3421 377.431 96.2754 377.151 96.1554C376.179 98.2753 374.714 100.262 372.916 102.048C373.235 102.115 373.515 102.235 373.742 102.435L376.498 104.928C377.178 105.542 376.964 106.568 376.019 107.248L371.957 110.128C371.491 110.461 370.918 110.648 370.385 110.661C369.853 110.675 369.36 110.541 369.014 110.235L366.257 107.742C366.03 107.542 365.911 107.302 365.884 107.035C363.46 108.262 360.81 109.168 358.066 109.701C358.186 109.928 358.239 110.195 358.173 110.488L357.4 114.181C357.214 115.075 356.135 115.848 354.99 115.888L350.049 116.061C348.917 116.101 348.131 115.395 348.318 114.501L349.09 110.808C349.157 110.515 349.316 110.235 349.529 109.995C346.959 109.648 344.668 108.915 342.697 107.862C342.551 108.128 342.338 108.382 342.031 108.595L338.183 111.315C337.703 111.648 337.144 111.835 336.611 111.848C336.078 111.861 335.586 111.728 335.253 111.421L332.323 108.795C331.657 108.182 331.87 107.142 332.802 106.475L336.651 103.755C336.957 103.542 337.304 103.395 337.663 103.302C336.571 101.622 335.932 99.7153 335.812 97.6354C335.492 97.7687 335.133 97.862 334.773 97.8754L330.099 98.0354C328.953 98.0754 328.168 97.3821 328.354 96.4754L329.166 92.5823C329.353 91.6757 330.432 90.9157 331.59 90.8757L336.265 90.7157C336.638 90.7024 336.944 90.769 337.224 90.889C338.209 88.7691 339.661 86.7826 341.459 84.996C341.153 84.9293 340.86 84.8093 340.633 84.6093L337.876 82.1161C337.197 81.5028 337.423 80.4762 338.356 79.7962L342.431 76.9164C342.897 76.583 343.457 76.4097 343.989 76.3831C344.522 76.3697 345.015 76.503 345.361 76.8097L348.118 79.3029C348.344 79.5029 348.451 79.7429 348.491 79.9962C350.928 78.7829 353.565 77.863 356.322 77.343C356.202 77.1163 356.149 76.8497 356.215 76.5564L356.988 72.8632C357.174 71.9699 358.253 71.1966 359.398 71.1566L364.339 70.9833C365.484 70.9433 366.257 71.6499 366.07 72.5432L365.298 76.2364C365.231 76.5297 365.072 76.8097 364.858 77.0497C367.429 77.3963 369.719 78.1296 371.677 79.1963C371.824 78.9163 372.05 78.6629 372.356 78.4496L376.205 75.7297C376.671 75.3964 377.244 75.2231 377.777 75.1964C378.31 75.1831 378.802 75.3164 379.149 75.6231L382.065 78.2496C382.744 78.8629 382.531 79.9029 381.586 80.5695L377.737 83.2894C377.431 83.5027 377.084 83.6494 376.738 83.7427C377.817 85.4226 378.469 87.3292 378.576 89.4224C378.909 89.2758 379.268 89.1824 379.628 89.1691L384.289 89.0091ZM355.283 102.768C361.729 102.542 367.842 98.222 368.907 93.1156C369.973 88.0225 365.578 84.0627 359.132 84.3027C352.673 84.5293 346.573 88.8491 345.521 93.9555C344.442 99.0486 348.837 102.995 355.283 102.768Z" fill="#CADAF1"/>
<path d="M128.066 269.051C119.556 281.676 99.8825 291.963 65.2285 284.983C72.4965 300.379 56.2745 333.338 30.0732 331.262C32.9895 456.983 128.066 498.758 128.066 498.758C128.066 498.758 223.143 456.983 226.059 331.262C199.858 333.338 183.636 300.379 190.904 284.983C156.249 291.963 136.576 281.665 128.066 269.051Z" fill="#87A1CF"/>
<path d="M128.066 269.051C119.773 281.357 100.862 291.449 67.8145 285.485C66.7323 285.291 65.8095 286.283 66.1171 287.344C70.9016 303.492 55.01 333.258 30.0732 331.273C32.9895 456.995 128.066 498.769 128.066 498.769" stroke="#556884" stroke-width="0.855371" stroke-miterlimit="10" stroke-linecap="round"/>
<path d="M128.066 292.248C118.041 300.927 102.332 306.344 80.9607 304.336C80.5733 311.738 77.9304 319.208 73.6015 325.879C68.0879 334.375 59.2136 341.8 48.1863 344.081C53.6658 434.574 113.245 471.159 128.066 478.823C142.887 471.159 202.466 434.562 207.946 344.081C196.918 341.811 188.044 334.387 182.531 325.879C178.202 319.196 175.57 311.726 175.171 304.336C153.8 306.344 138.091 300.927 128.066 292.248Z" fill="#CADAF1"/>
<path d="M85.6616 387.141L75.5117 356.132L73.8143 350.543V347.156H84.5338L92.4852 376.865H93.6129L101.45 347.156H112.056V350.543L110.359 356.132L100.266 387.141H85.6616Z" fill="#314E9E"/>
<path d="M119.552 387.141V356.246L118.424 350.543L119.552 347.156H137.607C140.353 347.156 142.813 347.59 145 348.456C147.222 349.289 148.965 350.714 150.252 352.744C151.573 354.74 152.223 357.512 152.223 361.047C152.223 364.582 151.528 367.388 150.138 369.464C148.748 371.494 146.812 372.942 144.328 373.809C141.879 374.676 139.077 375.109 135.921 375.109H129.713V378.04L130.283 383.685L129.713 387.129H119.552V387.141ZM129.702 366.248H135.226C137.186 366.248 138.746 365.894 139.908 365.175C141.07 364.423 141.663 363.043 141.663 361.058C141.663 359.667 141.378 358.629 140.82 357.956C140.25 357.238 139.464 356.77 138.45 356.542C137.471 356.314 136.32 356.2 135.01 356.2H129.143L129.702 366.248Z" fill="#314E9E"/>
<path d="M156.984 389.262V358.367L155.857 352.722L156.984 349.335H166.064L177.455 364.697L180.166 369.384H180.736V349.335H191.398V352.722L190.829 358.367V389.262H181.978L167.818 369.384H167.248V372.771L167.818 389.262H156.984Z" fill="#314E9E"/>
<path d="M72.7273 391.442L184.856 421.207L187.069 412.851L74.9405 383.087L72.7273 391.442Z" fill="#314E9E"/>
<path opacity="0.25" d="M128.066 269.051V498.758C128.066 498.758 223.143 456.983 226.059 331.262C199.858 333.338 183.636 300.379 190.904 284.983C156.249 291.963 136.576 281.665 128.066 269.051Z" fill="#103262"/>
</svg>
