<svg width="68" height="68" viewBox="0 0 68 68" fill="none" xmlns="http://www.w3.org/2000/svg">
<path d="M64.8333 19C65.4375 19.0001 66.0211 19.2189 66.4764 19.6159C66.9317 20.013 67.2278 20.5615 67.31 21.16L67.3333 21.5V49.8334C67.3335 52.6005 66.2748 55.2628 64.3744 57.2741C62.474 59.2855 59.876 60.4934 57.1133 60.65L56.5 60.6667H14.2033L16.6033 63.0667C17.0262 63.4904 17.283 64.0518 17.3271 64.6488C17.3711 65.2459 17.1995 65.8389 16.8433 66.32L16.6 66.6C16.1767 67.0234 15.6155 67.2809 15.0185 67.3255C14.4215 67.3702 13.8282 67.1991 13.3467 66.8434L13.0667 66.6L6.4 59.9334L6.18667 59.6934C6.17883 59.6823 6.17106 59.6712 6.16333 59.66L6.39667 59.9334C6.01647 59.5502 5.76995 59.0546 5.69369 58.5202C5.61743 57.9857 5.71549 57.441 5.97333 56.9667C6.08882 56.7591 6.2324 56.5684 6.4 56.4L13.0667 49.7334C13.5133 49.2902 14.1107 49.0317 14.7395 49.0096C15.3684 48.9874 15.9824 49.2032 16.4592 49.6139C16.9359 50.0246 17.2402 50.5999 17.3115 51.2251C17.3827 51.8503 17.2155 52.4793 16.8433 52.9867L16.6 53.2667L14.2 55.6667H56.5C57.9645 55.6666 59.3754 55.1156 60.4524 54.1232C61.5294 53.1308 62.1937 51.7696 62.3133 50.31L62.3333 49.8334V21.5C62.3333 20.837 62.5967 20.2011 63.0656 19.7323C63.5344 19.2634 64.1703 19 64.8333 19ZM54.6533 1.15671L54.9333 1.40004L61.6 8.06671C61.6853 8.15092 61.7644 8.24116 61.8367 8.33671L61.6033 8.06671C62.0676 8.534 62.3293 9.16526 62.3318 9.82398C62.3343 10.4827 62.0774 11.1159 61.6167 11.5867L61.6 11.6L54.9333 18.2667C54.4867 18.7099 53.8893 18.9684 53.2605 18.9905C52.6316 19.0126 52.0176 18.7969 51.5408 18.3862C51.0641 17.9755 50.7598 17.4002 50.6885 16.775C50.6173 16.1498 50.7845 15.5207 51.1567 15.0134L51.4 14.7334L53.7933 12.3334H11.5C10.036 12.3334 8.62561 12.8839 7.5487 13.8756C6.47179 14.8673 5.80713 16.2277 5.68667 17.6867L5.66667 18.1667V46.5C5.66647 47.1335 5.42585 47.7432 4.99343 48.206C4.561 48.6688 3.96901 48.9503 3.33707 48.9935C2.70513 49.0366 2.08036 48.8383 1.58901 48.4386C1.09765 48.0389 0.776339 47.4675 0.690001 46.84L0.666668 46.5V18.1667C0.666487 15.3996 1.72518 12.7373 3.62557 10.7259C5.52597 8.7146 8.12398 7.50671 10.8867 7.35004L11.5 7.33338H53.7967L51.3967 4.93338C50.9738 4.50966 50.717 3.94827 50.6729 3.35125C50.6289 2.75423 50.8005 2.16123 51.1567 1.68004L51.4 1.40004C51.8233 0.976652 52.3845 0.719225 52.9815 0.67457C53.5785 0.629915 54.1718 0.800998 54.6533 1.15671ZM34 20.6667C37.5362 20.6667 40.9276 22.0715 43.4281 24.572C45.9286 27.0724 47.3333 30.4638 47.3333 34C47.3333 37.5363 45.9286 40.9276 43.4281 43.4281C40.9276 45.9286 37.5362 47.3334 34 47.3334C30.4638 47.3334 27.0724 45.9286 24.5719 43.4281C22.0714 40.9276 20.6667 37.5363 20.6667 34C20.6667 30.4638 22.0714 27.0724 24.5719 24.572C27.0724 22.0715 30.4638 20.6667 34 20.6667ZM34 25.6667C31.7899 25.6667 29.6702 26.5447 28.1074 28.1075C26.5446 29.6703 25.6667 31.7899 25.6667 34C25.6667 36.2102 26.5446 38.3298 28.1074 39.8926C29.6702 41.4554 31.7899 42.3334 34 42.3334C36.2101 42.3334 38.3298 41.4554 39.8926 39.8926C41.4554 38.3298 42.3333 36.2102 42.3333 34C42.3333 31.7899 41.4554 29.6703 39.8926 28.1075C38.3298 26.5447 36.2101 25.6667 34 25.6667Z" fill="black"/>
</svg>
