<svg width="60" height="54" viewBox="0 0 60 54" fill="none" xmlns="http://www.w3.org/2000/svg">
<path d="M53.3333 0.333374H6.66667C4.89856 0.333374 3.20286 1.03575 1.95262 2.286C0.702379 3.53624 0 5.23193 0 7.00004V47C0 50.6667 3 53.6667 6.66667 53.6667H16.6667C18.5 53.6667 20 52.1667 20 50.3334C20 48.5 18.5 47 16.6667 47H6.66667V13.6667H53.3333V47H43.3333C41.5 47 40 48.5 40 50.3334C40 52.1667 41.5 53.6667 43.3333 53.6667H53.3333C57 53.6667 60 50.6667 60 47V7.00004C60 5.23193 59.2976 3.53624 58.0474 2.286C56.7971 1.03575 55.1014 0.333374 53.3333 0.333374ZM28.8333 21.5L19.5333 30.8C18.4667 31.8667 19.2 33.6667 20.7 33.6667H26.6667V50.3334C26.6667 52.1667 28.1667 53.6667 30 53.6667C31.8333 53.6667 33.3333 52.1667 33.3333 50.3334V33.6667H39.3C40.8 33.6667 41.5333 31.8667 40.4667 30.8334L31.1667 21.5334C30.5333 20.8667 29.4667 20.8667 28.8333 21.5Z" fill="black"/>
</svg>
