<svg width="81" height="92" viewBox="0 0 81 92" fill="none" xmlns="http://www.w3.org/2000/svg">
<path fill-rule="evenodd" clip-rule="evenodd" d="M29.1768 22.6275C29.5363 21.8472 29.9574 21.241 30.2356 20.9213C30.2411 21.6752 30.1249 22.3514 29.945 22.9391C30.4987 23.2062 31.0741 23.5802 31.624 24.0963C31.2003 24.0835 30.4692 23.9808 29.6521 23.7147C29.2755 24.5452 28.7994 25.1187 28.4873 25.3856C28.5084 24.6867 28.6555 24.0168 28.8621 23.4125C28.2784 23.1539 27.687 22.807 27.1597 22.348C27.5675 22.3001 28.3116 22.3401 29.1768 22.6275Z" fill="url(#paint0_linear_8_902)"/>
<path fill-rule="evenodd" clip-rule="evenodd" d="M26.335 14.8096C26.5743 14.2902 26.8545 13.8867 27.0397 13.674C27.0434 14.1757 26.966 14.6258 26.8463 15.017C27.2149 15.1948 27.5979 15.4438 27.9639 15.7873C27.6819 15.7788 27.1953 15.7105 26.6513 15.5333C26.4007 16.0861 26.0837 16.4678 25.876 16.6455C25.8901 16.1803 25.988 15.7344 26.1255 15.3322C25.737 15.16 25.3433 14.9291 24.9923 14.6236C25.2638 14.5917 25.7591 14.6183 26.335 14.8096Z" fill="url(#paint1_linear_8_902)"/>
<path fill-rule="evenodd" clip-rule="evenodd" d="M18.6443 7.0384C19.0038 6.25805 19.4248 5.65186 19.7031 5.33223C19.7085 6.08609 19.5924 6.7623 19.4125 7.35001C19.9662 7.61709 20.5416 7.99108 21.0914 8.50718C20.6678 8.49436 19.9367 8.39174 19.1196 8.12557C18.743 8.95611 18.2669 9.52956 17.9548 9.79653C17.9759 9.09757 18.123 8.42769 18.3296 7.82343C17.7459 7.56475 17.1544 7.21787 16.6271 6.75885C17.035 6.71104 17.7791 6.75097 18.6443 7.0384Z" fill="url(#paint2_linear_8_902)"/>
<path fill-rule="evenodd" clip-rule="evenodd" d="M17.4263 24.5352C17.9553 23.3869 18.5748 22.4949 18.9842 22.0246C18.9923 23.1339 18.8213 24.129 18.5565 24.9938C19.3708 25.3867 20.217 25.9368 21.0256 26.6957C20.4025 26.6769 19.3273 26.526 18.1256 26.1346C17.5715 27.3563 16.8712 28.1999 16.412 28.5926C16.4431 27.5645 16.6594 26.5791 16.9633 25.6902C16.1042 25.3096 15.2337 24.7991 14.4576 24.1235C15.0578 24.0532 16.1529 24.112 17.4263 24.5352Z" fill="url(#paint3_linear_8_902)"/>
<circle cx="20.6079" cy="16.6771" r="0.463364" transform="rotate(21.3865 20.6079 16.6771)" fill="#2F235A"/>
<circle cx="32.0805" cy="10.8512" r="0.463364" transform="rotate(21.3865 32.0805 10.8512)" fill="#FE9076"/>
<circle cx="10.0569" cy="13.3819" r="0.463364" transform="rotate(21.3865 10.0569 13.3819)" fill="#FFA400"/>
<circle cx="20.0075" cy="32.0394" r="0.463364" transform="rotate(21.3865 20.0075 32.0394)" fill="#23BB86"/>
<path d="M31.7289 8.63617C31.2782 6.91443 29.651 2.97674 26.7489 0.999895" stroke="#FE9076" stroke-width="0.346178" stroke-linecap="round"/>
<path d="M8.68955 11.5127C7.56783 10.1309 4.45951 7.21694 0.999974 6.61535" stroke="#FFA400" stroke-width="0.346178" stroke-linecap="round"/>
<path d="M18.0356 32.7129C17.0416 33.0754 14.5391 34.2306 12.4819 35.9512" stroke="#23BB86" stroke-width="0.346178" stroke-linecap="round"/>
<path fill-rule="evenodd" clip-rule="evenodd" d="M52.1404 22.6275C51.7809 21.8472 51.3598 21.241 51.0816 20.9213C51.0761 21.6752 51.1923 22.3514 51.3722 22.9391C50.8185 23.2062 50.243 23.5802 49.6932 24.0963C50.1169 24.0835 50.848 23.9808 51.6651 23.7147C52.0417 24.5452 52.5178 25.1187 52.8299 25.3856C52.8088 24.6867 52.6617 24.0168 52.4551 23.4125C53.0388 23.1539 53.6302 22.807 54.1575 22.348C53.7497 22.3001 53.0056 22.3401 52.1404 22.6275Z" fill="url(#paint4_linear_8_902)"/>
<path fill-rule="evenodd" clip-rule="evenodd" d="M54.9806 14.8096C54.7413 14.2902 54.4611 13.8867 54.2759 13.6739C54.2723 14.1757 54.3496 14.6258 54.4693 15.017C54.1007 15.1948 53.7176 15.4437 53.3516 15.7873C53.6336 15.7787 54.1203 15.7104 54.6643 15.5332C54.915 16.0861 55.2319 16.4678 55.4396 16.6455C55.4256 16.1802 55.3276 15.7343 55.1901 15.3321C55.5786 15.1599 55.9723 14.929 56.3232 14.6235C56.0517 14.5917 55.5565 14.6183 54.9806 14.8096Z" fill="url(#paint5_linear_8_902)"/>
<path fill-rule="evenodd" clip-rule="evenodd" d="M62.6717 7.03816C62.3123 6.2578 61.8912 5.65161 61.613 5.33198C61.6075 6.08584 61.7237 6.76206 61.9036 7.34977C61.3499 7.61684 60.7744 7.99084 60.2246 8.50693C60.6483 8.49412 61.3793 8.39149 62.1965 8.12532C62.5731 8.95586 63.0492 9.52931 63.3613 9.79628C63.3401 9.09732 63.1931 8.42745 62.9865 7.82319C63.5702 7.56451 64.1616 7.21763 64.6889 6.75861C64.281 6.71079 63.537 6.75073 62.6717 7.03816Z" fill="url(#paint6_linear_8_902)"/>
<path fill-rule="evenodd" clip-rule="evenodd" d="M63.8909 24.5356C63.3619 23.3874 62.7424 22.4954 62.333 22.0251C62.3249 23.1344 62.4959 24.1295 62.7607 24.9943C61.9464 25.3872 61.1002 25.9372 60.2916 26.6962C60.9147 26.6774 61.9899 26.5265 63.1916 26.1351C63.7457 27.3568 64.446 28.2004 64.9052 28.5931C64.8741 27.565 64.6578 26.5796 64.3539 25.6907C65.213 25.3101 66.0835 24.7996 66.8596 24.124C66.2594 24.0536 65.1643 24.1125 63.8909 24.5356Z" fill="url(#paint7_linear_8_902)"/>
<circle cx="0.463364" cy="0.463364" r="0.463364" transform="matrix(-0.931142 0.364658 0.364658 0.931142 60.9713 16.0767)" fill="#2F235A"/>
<circle cx="0.463364" cy="0.463364" r="0.463364" transform="matrix(-0.931142 0.364658 0.364658 0.931142 49.4987 10.2505)" fill="#FE9076"/>
<circle cx="0.463364" cy="0.463364" r="0.463364" transform="matrix(-0.931142 0.364658 0.364658 0.931142 71.5223 12.7815)" fill="#FFA400"/>
<circle cx="0.463364" cy="0.463364" r="0.463364" transform="matrix(-0.931142 0.364658 0.364658 0.931142 61.5717 31.439)" fill="#23BB86"/>
<path d="M49.5878 8.63617C50.0386 6.91443 51.6657 2.97674 54.5678 0.999895" stroke="#FE9076" stroke-width="0.346178" stroke-linecap="round"/>
<path d="M72.6266 11.5127C73.7483 10.1309 76.8566 7.21694 80.3161 6.61535" stroke="#FFA400" stroke-width="0.346178" stroke-linecap="round"/>
<path d="M63.281 32.7129C64.2751 33.0754 66.7775 34.2306 68.8347 35.9512" stroke="#23BB86" stroke-width="0.346178" stroke-linecap="round"/>
<rect x="16.0669" y="57.5237" width="49.1814" height="33.9973" fill="url(#paint8_linear_8_902)"/>
<mask id="mask0_8_902" style="mask-type:alpha" maskUnits="userSpaceOnUse" x="16" y="57" width="50" height="35">
<rect x="16.0669" y="57.5237" width="49.1814" height="33.9973" fill="#C4C4C4"/>
</mask>
<g mask="url(#mask0_8_902)">
<path d="M18.3939 56.658L51.883 56.658L44.3137 69.8011L10.8245 69.8011L18.3939 56.658Z" fill="black" fill-opacity="0.07"/>
<rect x="49.5121" y="57.5237" width="49.1814" height="33.9973" fill="url(#paint9_linear_8_902)"/>
</g>
<path d="M16.0238 57.5237L49.513 57.5237L43.0439 68.3191L9.55475 68.3192L16.0238 57.5237Z" fill="url(#paint10_linear_8_902)"/>
<mask id="mask1_8_902" style="mask-type:alpha" maskUnits="userSpaceOnUse" x="49" y="57" width="17" height="35">
<rect x="49.5123" y="57.5237" width="15.7357" height="33.9973" fill="#C4C4C4"/>
</mask>
<g mask="url(#mask1_8_902)">
<path d="M63.3325 57.467L47.5722 57.467L54.9776 69.896L70.738 69.896L63.3325 57.467Z" fill="black" fill-opacity="0.07"/>
</g>
<path d="M65.2727 57.5237L49.5123 57.5237L55.9814 68.3191L71.7418 68.3192L65.2727 57.5237Z" fill="url(#paint11_linear_8_902)"/>
<circle cx="32.4069" cy="48.8644" r="4.64762" fill="url(#paint12_linear_8_902)"/>
<circle cx="50.5803" cy="39.7256" r="4.49102" fill="url(#paint13_linear_8_902)"/>
<circle cx="33.433" cy="31.613" r="3.62157" fill="url(#paint14_linear_8_902)"/>
<circle cx="47.3042" cy="23.3264" r="3.27611" fill="url(#paint15_linear_8_902)"/>
<circle cx="41.9729" cy="35.5999" r="0.90316" fill="#FFA800" fill-opacity="0.23"/>
<circle cx="55.9748" cy="28.8946" r="0.90316" fill="#FFA800" fill-opacity="0.23"/>
<circle cx="34.3363" cy="18.1065" r="0.90316" fill="#FFA800" fill-opacity="0.23"/>
<circle cx="46.4014" cy="50.8702" r="0.90316" fill="#FFA800" fill-opacity="0.23"/>
<circle cx="25.5189" cy="36.503" r="0.90316" fill="#FFA800" fill-opacity="0.23"/>
<path d="M65.3646 57.6846H16.028L8.45117 10.9678H74.4629L65.3646 57.6846Z" fill="url(#paint16_linear_8_902)"/>
<defs>
<linearGradient id="paint0_linear_8_902" x1="30.0992" y1="21.4159" x2="28.4576" y2="25.6076" gradientUnits="userSpaceOnUse">
<stop stop-color="#FFE89E"/>
<stop offset="1" stop-color="#FFBF1A"/>
</linearGradient>
<linearGradient id="paint1_linear_8_902" x1="26.9489" y1="14.0032" x2="25.8563" y2="16.7933" gradientUnits="userSpaceOnUse">
<stop stop-color="#FFE89E"/>
<stop offset="1" stop-color="#FFBF1A"/>
</linearGradient>
<linearGradient id="paint2_linear_8_902" x1="19.5666" y1="5.82683" x2="17.9251" y2="10.0185" gradientUnits="userSpaceOnUse">
<stop stop-color="#FFE89E"/>
<stop offset="1" stop-color="#FFBF1A"/>
</linearGradient>
<linearGradient id="paint3_linear_8_902" x1="18.7824" y1="22.7518" x2="16.3673" y2="28.9188" gradientUnits="userSpaceOnUse">
<stop stop-color="#FFE89E"/>
<stop offset="1" stop-color="#FFBF1A"/>
</linearGradient>
<linearGradient id="paint4_linear_8_902" x1="51.218" y1="21.4159" x2="52.8596" y2="25.6076" gradientUnits="userSpaceOnUse">
<stop stop-color="#FFE89E"/>
<stop offset="1" stop-color="#FFBF1A"/>
</linearGradient>
<linearGradient id="paint5_linear_8_902" x1="54.3666" y1="14.0032" x2="55.4593" y2="16.7933" gradientUnits="userSpaceOnUse">
<stop stop-color="#FFE89E"/>
<stop offset="1" stop-color="#FFBF1A"/>
</linearGradient>
<linearGradient id="paint6_linear_8_902" x1="61.7494" y1="5.82659" x2="63.391" y2="10.0183" gradientUnits="userSpaceOnUse">
<stop stop-color="#FFE89E"/>
<stop offset="1" stop-color="#FFBF1A"/>
</linearGradient>
<linearGradient id="paint7_linear_8_902" x1="62.5348" y1="22.7523" x2="64.9499" y2="28.9193" gradientUnits="userSpaceOnUse">
<stop stop-color="#FFE89E"/>
<stop offset="1" stop-color="#FFBF1A"/>
</linearGradient>
<linearGradient id="paint8_linear_8_902" x1="32.4958" y1="51.2294" x2="12.8943" y2="105.217" gradientUnits="userSpaceOnUse">
<stop stop-color="#FFD481"/>
<stop offset="1" stop-color="#FA620C"/>
</linearGradient>
<linearGradient id="paint9_linear_8_902" x1="24.4579" y1="55.3673" x2="83.946" y2="118.939" gradientUnits="userSpaceOnUse">
<stop stop-color="#FFD481"/>
<stop offset="0.83311" stop-color="#FA620C"/>
</linearGradient>
<linearGradient id="paint10_linear_8_902" x1="16.713" y1="53.6653" x2="15.1215" y2="76.6672" gradientUnits="userSpaceOnUse">
<stop stop-color="#FFD481"/>
<stop offset="1" stop-color="#FA620C"/>
</linearGradient>
<linearGradient id="paint11_linear_8_902" x1="67.7595" y1="53.6653" x2="70.5903" y2="76.4253" gradientUnits="userSpaceOnUse">
<stop stop-color="#FFD481"/>
<stop offset="1" stop-color="#FA620C"/>
</linearGradient>
<linearGradient id="paint12_linear_8_902" x1="32.7588" y1="42.6829" x2="31.8748" y2="55.228" gradientUnits="userSpaceOnUse">
<stop stop-color="#FF9F81"/>
<stop offset="1" stop-color="#F53838"/>
</linearGradient>
<linearGradient id="paint13_linear_8_902" x1="50.9203" y1="33.7524" x2="50.0661" y2="45.8748" gradientUnits="userSpaceOnUse">
<stop stop-color="#FF9F81"/>
<stop offset="1" stop-color="#F53838"/>
</linearGradient>
<linearGradient id="paint14_linear_8_902" x1="33.7072" y1="26.7962" x2="33.0183" y2="36.5717" gradientUnits="userSpaceOnUse">
<stop stop-color="#FF9F81"/>
<stop offset="1" stop-color="#F53838"/>
</linearGradient>
<linearGradient id="paint15_linear_8_902" x1="47.5523" y1="18.9691" x2="46.9291" y2="27.8121" gradientUnits="userSpaceOnUse">
<stop stop-color="#FF9F81"/>
<stop offset="1" stop-color="#F53838"/>
</linearGradient>
<linearGradient id="paint16_linear_8_902" x1="40.9146" y1="10.9678" x2="40.9146" y2="110.219" gradientUnits="userSpaceOnUse">
<stop stop-color="white" stop-opacity="0"/>
<stop offset="1" stop-color="#FE9277"/>
</linearGradient>
</defs>
</svg>
